<svg width="25" height="25" viewBox="0 0 25 25" fill="none" xmlns="http://www.w3.org/2000/svg">
<path d="M2.91516 9.46314V7.63927L1.31421 6.26124L2.91516 5.02505V2.91747H5.02275L6.27919 1.37732L7.49511 2.91747H9.66349V5.02505L11.2442 6.26124L9.66349 7.63927" stroke="#999999"/>
<path d="M24.1123 9.46012C8.41198 6.69549 1.44922 12.6002 1.44922 12.6002V24H24.1123V9.46012Z" fill="white" stroke="#999999" stroke-width="1.5"/>
<path d="M1.44409 19.0625C1.44409 19.0625 4.70575 13.4524 15.1139 8.74255M6.35742 23.9758C6.35742 23.9758 8.45575 15.612 19.1837 8.83803M21.9405 9.17768C16.533 13.4514 12.8116 23.9758 12.8116 23.9758M24.0919 9.52656C20.1089 16.853 19.2077 23.9758 19.2077 23.9758" stroke="#999999" stroke-width="1.5"/>
<circle cx="6.27901" cy="6.24105" r="2.03316" fill="white" stroke="#999999"/>
</svg>
