<svg width="103" height="50" viewBox="0 0 103 50" fill="none" xmlns="http://www.w3.org/2000/svg">
<path d="M35.0631 17.6505H14.369L6.75732 29.0679L9.37383 31.9223H29.5923L35.0631 35.2524H44.3398L50.7622 24.7864H67.4126L70.7427 28.1165H86.2039L85.0146 24.7864L90.0097 9.32524L94.5291 4.09223H61.7039L60.2767 1H31.9709V7.66019" stroke="#5CA450" stroke-width="2"/>
<path d="M54.3301 8.61169H5.56796L2 14.7962L6.28155 17.4127L8.42233 14.7962H54.3301" stroke="#5CA450" stroke-width="2"/>
<path d="M70.9808 28.1165L61.7041 4.09229" stroke="#5CA450" stroke-width="2"/>
<path d="M14.6069 32.3979L18.1749 35.4902" stroke="#5CA450" stroke-width="2"/>
<path d="M33.3979 43.8154L34.5356 45.2426H48.1869L49.097 43.8154" stroke="#5CA450" stroke-width="2"/>
<path d="M63.8447 9.0874H90.2476" stroke="#5CA450" stroke-width="2"/>
<path d="M80.0195 9.3252V27.8786" stroke="#5CA450" stroke-width="2"/>
<path d="M77.165 28.1165V38.1067" stroke="#5CA450" stroke-width="2"/>
<path d="M77.165 35.0146L81.6845 39.7719" stroke="#5CA450" stroke-width="2"/>
<path d="M72.4077 40.4853L76.9271 38.1067L89.5339 42.6261V45.2426L88.5825 46.6698H78.83L73.1213 44.2912L72.4077 40.4853Z" stroke="#5CA450" stroke-width="2"/>
<path d="M85.0146 40.961L94.0535 35.728H95.7185V37.6309L88.5826 42.3882" stroke="#5CA450" stroke-width="2"/>
<path d="M88.8204 38.8204L88.5825 33.8253L93.8155 30.2573L100.054 32.7918L100.951 39.0583L96.6699 42.8641L90.4854 41.1991" stroke="#5CA450" stroke-width="2"/>
<path d="M31.9707 20.7428L67.1746 18.6021" stroke="#5CA450" stroke-width="2"/>
<path d="M38.6309 23.1213V35.1451" stroke="#5CA450" stroke-width="2"/>
<path d="M31.9225 41.9126C31.9225 45.7997 28.6704 48.9999 24.5972 48.9999C20.5241 48.9999 17.272 45.7997 17.272 41.9126C17.272 38.0254 20.5241 34.8252 24.5972 34.8252C28.6704 34.8252 31.9225 38.0254 31.9225 41.9126Z" stroke="#5CA450" stroke-width="2"/>
<path d="M65.2233 38.5825C65.2233 41.145 63.0475 43.2913 60.2767 43.2913C57.5059 43.2913 55.3301 41.145 55.3301 38.5825C55.3301 36.02 57.5059 33.8738 60.2767 33.8738C63.0475 33.8738 65.2233 36.02 65.2233 38.5825Z" stroke="#5CA450" stroke-width="2"/>
<path d="M70.9323 38.5825C70.9323 44.3166 66.1812 49 60.2769 49C54.3726 49 49.6216 44.3166 49.6216 38.5825C49.6216 32.8484 54.3726 28.165 60.2769 28.165C66.1812 28.165 70.9323 32.8484 70.9323 38.5825Z" stroke="#5CA450" stroke-width="2"/>
<path d="M27.1652 41.9126C27.1652 43.1356 26.0816 44.2427 24.5973 44.2427C23.1129 44.2427 22.0293 43.1356 22.0293 41.9126C22.0293 40.6896 23.1129 39.5825 24.5973 39.5825C26.0816 39.5825 27.1652 40.6896 27.1652 41.9126Z" stroke="#5CA450" stroke-width="2"/>
</svg>
