<svg width="22" height="22" viewBox="0 0 22 22" fill="none" xmlns="http://www.w3.org/2000/svg">
<circle cx="11" cy="11" r="10" stroke="#999999" stroke-width="2"/>
<path d="M8.66797 8.7666C9.80469 8.64941 10.7949 8.40918 11.6387 8.0459C11.7852 8.10449 11.8877 8.18066 11.9463 8.27441C11.9463 11.3154 11.9697 13.4893 12.0166 14.7959C12.0225 14.9482 12.0664 15.0801 12.1484 15.1914C12.2363 15.2969 12.3594 15.3789 12.5176 15.4375C12.6758 15.4961 12.8076 15.54 12.9131 15.5693C13.0186 15.5928 13.1562 15.6162 13.3262 15.6396C13.3613 15.71 13.3789 15.7832 13.3789 15.8594C13.3789 15.9355 13.3613 16 13.3262 16.0527C12.5527 16.0176 11.8027 16 11.0762 16C10.3613 16 9.61719 16.0176 8.84375 16.0527C8.82031 15.959 8.80859 15.8945 8.80859 15.8594C8.80859 15.8301 8.82031 15.7568 8.84375 15.6396C9.03711 15.6162 9.19531 15.5928 9.31836 15.5693C9.44141 15.54 9.59375 15.4961 9.77539 15.4375C9.95703 15.3789 10.0947 15.2969 10.1885 15.1914C10.2822 15.0801 10.332 14.9482 10.3379 14.7959C10.3613 14.2158 10.373 13.5127 10.373 12.6865C10.373 12.4111 10.3701 11.9424 10.3643 11.2803C10.3584 10.6182 10.3555 10.0381 10.3555 9.54004C10.0215 9.33496 9.45898 9.21484 8.66797 9.17969C8.64453 9.08594 8.63281 9.0127 8.63281 8.95996C8.63281 8.9248 8.64453 8.86035 8.66797 8.7666ZM10.0479 5.09277C10.0479 4.79395 10.1533 4.53906 10.3643 4.32812C10.5811 4.11719 10.8359 4.01172 11.1289 4.01172C11.4277 4.01172 11.6826 4.11719 11.8936 4.32812C12.1045 4.53906 12.21 4.79395 12.21 5.09277C12.21 5.38574 12.1045 5.64062 11.8936 5.85742C11.6826 6.06836 11.4277 6.17383 11.1289 6.17383C10.8359 6.17383 10.5811 6.06836 10.3643 5.85742C10.1533 5.64062 10.0479 5.38574 10.0479 5.09277Z" fill="#999999"/>
</svg>