<svg width="103" height="50" viewBox="0 0 103 50" fill="none" xmlns="http://www.w3.org/2000/svg">
<path fill-rule="evenodd" clip-rule="evenodd" d="M71.9805 0H42.0348L40.6076 3.09223H6.23729L12.0524 9.8255L16.8807 24.7703L15.3285 29.1165H32.6229L35.953 25.7864H51.6296L58.0519 36.2524H68.1687L73.6395 32.9223H94.0175L97.4611 29.1657L89.1176 16.6505H67.8882V18.6505H88.0472L94.9271 28.9702L93.1377 30.9223H73.0787L67.6078 34.2524H59.1712L52.7489 23.7864H35.1245L31.7944 27.1165H18.1665L18.9929 24.8025L13.8309 8.82498L10.6072 5.09223H41.8873L43.3145 2H69.9805V7.66019H71.9805V0Z" fill="#5CA450"/>
<path fill-rule="evenodd" clip-rule="evenodd" d="M97.961 7.61163H48.6213V9.61163H96.8058L99.5979 14.4513L96.892 16.1049L95.0029 13.7961H48.6213V15.7961H94.0552L96.4477 18.7203L102.305 15.1409L97.961 7.61163Z" fill="#5CA450"/>
<path fill-rule="evenodd" clip-rule="evenodd" d="M40.3146 3.73203L31.0379 27.7563L32.9037 28.4767L42.1804 4.45246L40.3146 3.73203Z" fill="#5CA450"/>
<path fill-rule="evenodd" clip-rule="evenodd" d="M85.4316 36.2459L88.9995 33.1537L87.6897 31.6423L84.1217 34.7346L85.4316 36.2459Z" fill="#5CA450"/>
<path fill-rule="evenodd" clip-rule="evenodd" d="M70.3353 44.4389L68.7713 43.1922L67.934 44.2427H55.3127L54.6974 43.2779L53.0111 44.3532L54.216 46.2427H68.8974L70.3353 44.4389Z" fill="#5CA450"/>
<path fill-rule="evenodd" clip-rule="evenodd" d="M12.7039 10.0874H39.1068V8.0874H12.7039V10.0874Z" fill="#5CA450"/>
<path fill-rule="evenodd" clip-rule="evenodd" d="M23.932 27.8786V9.32523H21.932V27.8786H23.932Z" fill="#5CA450"/>
<path fill-rule="evenodd" clip-rule="evenodd" d="M26.7864 38.1068V28.1165H24.7864V38.1068H26.7864Z" fill="#5CA450"/>
<path fill-rule="evenodd" clip-rule="evenodd" d="M21.9919 40.4606L26.5114 35.7033L25.0614 34.3258L20.5419 39.0831L21.9919 40.4606Z" fill="#5CA450"/>
<path fill-rule="evenodd" clip-rule="evenodd" d="M26.1008 37.017L12.4175 41.9224V45.5455L13.8338 47.6699H24.3214L30.7134 45.0065L31.6626 39.9443L26.1008 37.017ZM25.9477 39.1965L29.4248 41.0266L28.9468 43.576L23.9214 45.6699H14.9041L14.4175 44.9399V43.33L25.9477 39.1965Z" fill="#5CA450"/>
<path fill-rule="evenodd" clip-rule="evenodd" d="M9.16659 34.7281H6.23295V38.1662L13.8142 43.2204L14.9236 41.5563L8.23295 37.0959V36.7281H8.62941L17.4358 41.8266L18.4379 40.0957L9.16659 34.7281Z" fill="#5CA450"/>
<path fill-rule="evenodd" clip-rule="evenodd" d="M9.25621 29.129L1.98908 32.0815L0.933836 39.4485L6.02043 43.97L12.7259 42.1646L12.206 40.2334L6.54257 41.7582L3.06606 38.6679L3.80601 33.502L9.01553 31.3855L13.3434 34.3364L13.1321 38.7728L15.1299 38.8679L15.3943 33.3141L9.25621 29.129Z" fill="#5CA450"/>
<path fill-rule="evenodd" clip-rule="evenodd" d="M35.7159 19.6001L70.9198 21.7409L71.0412 19.7446L35.8373 17.6038L35.7159 19.6001Z" fill="#5CA450"/>
<path fill-rule="evenodd" clip-rule="evenodd" d="M65.3204 35.1451V23.1213H63.3204V35.1451H65.3204Z" fill="#5CA450"/>
<path fill-rule="evenodd" clip-rule="evenodd" d="M78.3543 48C74.8059 48 72.029 45.2203 72.029 41.9126C72.029 38.6049 74.8059 35.8253 78.3543 35.8253C81.9026 35.8253 84.6795 38.6049 84.6795 41.9126C84.6795 45.2203 81.9026 48 78.3543 48ZM78.3543 50C73.7564 50 70.029 46.3792 70.029 41.9126C70.029 37.4461 73.7564 33.8253 78.3543 33.8253C82.9522 33.8253 86.6795 37.4461 86.6795 41.9126C86.6795 46.3792 82.9522 50 78.3543 50Z" fill="#5CA450"/>
<path fill-rule="evenodd" clip-rule="evenodd" d="M42.6747 42.2912C40.4174 42.2912 38.7281 40.5546 38.7281 38.5825C38.7281 36.6104 40.4174 34.8737 42.6747 34.8737C44.9321 34.8737 46.6213 36.6104 46.6213 38.5825C46.6213 40.5546 44.9321 42.2912 42.6747 42.2912ZM42.6747 44.2912C39.3905 44.2912 36.7281 41.7353 36.7281 38.5825C36.7281 35.4296 39.3905 32.8737 42.6747 32.8737C45.959 32.8737 48.6213 35.4296 48.6213 38.5825C48.6213 41.7353 45.959 44.2912 42.6747 44.2912Z" fill="#5CA450"/>
<path fill-rule="evenodd" clip-rule="evenodd" d="M42.6746 48C37.303 48 33.0193 43.745 33.0193 38.5825C33.0193 33.4201 37.303 29.165 42.6746 29.165C48.0462 29.165 52.33 33.4201 52.33 38.5825C52.33 43.745 48.0462 48 42.6746 48ZM42.6746 50C36.2376 50 31.0193 44.8882 31.0193 38.5825C31.0193 32.2768 36.2376 27.165 42.6746 27.165C49.1117 27.165 54.33 32.2768 54.33 38.5825C54.33 44.8882 49.1117 50 42.6746 50Z" fill="#5CA450"/>
<path fill-rule="evenodd" clip-rule="evenodd" d="M78.3543 43.2427C77.3561 43.2427 76.7863 42.5195 76.7863 41.9126C76.7863 41.3057 77.3561 40.5825 78.3543 40.5825C79.3524 40.5825 79.9222 41.3057 79.9222 41.9126C79.9222 42.5195 79.3524 43.2427 78.3543 43.2427ZM78.3543 45.2427C76.3838 45.2427 74.7863 43.7517 74.7863 41.9126C74.7863 40.0734 76.3838 38.5825 78.3543 38.5825C80.3248 38.5825 81.9222 40.0734 81.9222 41.9126C81.9222 43.7517 80.3248 45.2427 78.3543 45.2427Z" fill="#5CA450"/>
</svg>
