<svg width="26" height="19" viewBox="0 0 26 19" fill="none" xmlns="http://www.w3.org/2000/svg">
<path d="M17.5338 16.844L14.911 14.4294C13.8967 14.7631 12.8004 14.8249 11.7494 14.6076C10.6985 14.3903 9.73623 13.903 8.97458 13.2022C8.21293 12.5014 7.68323 11.6161 7.4471 10.6491C7.21097 9.68219 7.27812 8.67344 7.64075 7.74025L4.29325 4.6603C1.52425 6.92541 0 9.50001 0 9.50001C0 9.50001 4.875 17.7232 13 17.7232C14.5607 17.7182 16.1036 17.419 17.5338 16.844ZM8.46625 2.15597C9.89634 1.58098 11.4393 1.28178 13 1.27684C21.125 1.27684 26 9.50001 26 9.50001C26 9.50001 24.4741 12.0731 21.7084 14.3412L18.3576 11.2583C18.7203 10.3251 18.7874 9.31633 18.5513 8.34939C18.3151 7.38246 17.7854 6.49709 17.0238 5.79632C16.2621 5.09555 15.2999 4.60818 14.2489 4.39092C13.198 4.17367 12.1016 4.23545 11.0874 4.5691L8.46625 2.15747V2.15597Z" fill="#999999"/>
<path d="M8.97849 8.97085C8.8891 9.54544 8.94638 10.1313 9.1458 10.682C9.34522 11.2327 9.68129 11.733 10.1274 12.1435C10.5735 12.5539 11.1173 12.8631 11.7158 13.0466C12.3144 13.2301 12.9511 13.2828 13.5756 13.2006L8.97686 8.97085H8.97849ZM17.0222 10.0294L12.4251 5.79821C13.0496 5.71597 13.6864 5.76867 14.2849 5.95215C14.8834 6.13563 15.4273 6.44484 15.8733 6.85528C16.3194 7.26571 16.6555 7.7661 16.8549 8.31678C17.0543 8.86747 17.1116 9.45332 17.0222 10.0279V10.0294Z" fill="#999999"/>
<path fill-rule="evenodd" clip-rule="evenodd" d="M22.1748 19L2.6748 1.05855L3.8253 0L23.3253 17.9415L22.1748 19Z" fill="#999999"/>
</svg>
