<svg width="40" height="40" viewBox="0 0 40 40" fill="none" xmlns="http://www.w3.org/2000/svg">
<path d="M40 20C40 31.0457 31.0457 40 20 40C8.9543 40 0 31.0457 0 20C0 8.9543 8.9543 0 20 0C31.0457 0 40 8.9543 40 20Z" fill="#70AF66"/>
<path d="M11.25 21.25C10.3296 21.25 9.58337 20.5038 9.58337 19.5833C9.58337 18.6629 10.3296 17.9167 11.25 17.9167H28.75C29.6705 17.9167 30.4167 18.6629 30.4167 19.5833C30.4167 20.5038 29.6705 21.25 28.75 21.25H11.25Z" fill="white"/>
<path d="M11.25 21.25C10.3296 21.25 9.58337 20.5038 9.58337 19.5833C9.58337 18.6629 10.3296 17.9167 11.25 17.9167H28.75C29.6705 17.9167 30.4167 18.6629 30.4167 19.5833C30.4167 20.5038 29.6705 21.25 28.75 21.25H11.25Z" fill="white"/>
<path d="M11.25 21.25C10.3296 21.25 9.58337 20.5038 9.58337 19.5833C9.58337 18.6629 10.3296 17.9167 11.25 17.9167H28.75C29.6705 17.9167 30.4167 18.6629 30.4167 19.5833C30.4167 20.5038 29.6705 21.25 28.75 21.25H11.25Z" fill="white"/>
<path d="M11.25 21.25C10.3296 21.25 9.58337 20.5038 9.58337 19.5833C9.58337 18.6629 10.3296 17.9167 11.25 17.9167H28.75C29.6705 17.9167 30.4167 18.6629 30.4167 19.5833C30.4167 20.5038 29.6705 21.25 28.75 21.25H11.25Z" fill="white"/>
<path d="M18.3333 10.8334C18.3333 9.91294 19.0794 9.16675 19.9999 9.16675C20.9204 9.16675 21.6666 9.91294 21.6666 10.8334V28.3334C21.6666 29.2539 20.9204 30.0001 19.9999 30.0001C19.0794 30.0001 18.3333 29.2539 18.3333 28.3334V10.8334Z" fill="white"/>
<path d="M18.3333 10.8334C18.3333 9.91294 19.0794 9.16675 19.9999 9.16675C20.9204 9.16675 21.6666 9.91294 21.6666 10.8334V28.3334C21.6666 29.2539 20.9204 30.0001 19.9999 30.0001C19.0794 30.0001 18.3333 29.2539 18.3333 28.3334V10.8334Z" fill="white"/>
<path d="M18.3333 10.8334C18.3333 9.91294 19.0794 9.16675 19.9999 9.16675C20.9204 9.16675 21.6666 9.91294 21.6666 10.8334V28.3334C21.6666 29.2539 20.9204 30.0001 19.9999 30.0001C19.0794 30.0001 18.3333 29.2539 18.3333 28.3334V10.8334Z" fill="white"/>
<path d="M18.3333 10.8334C18.3333 9.91294 19.0794 9.16675 19.9999 9.16675C20.9204 9.16675 21.6666 9.91294 21.6666 10.8334V28.3334C21.6666 29.2539 20.9204 30.0001 19.9999 30.0001C19.0794 30.0001 18.3333 29.2539 18.3333 28.3334V10.8334Z" fill="white"/>
</svg>
