<svg width="25" height="25" viewBox="0 0 20 21" fill="none" xmlns="http://www.w3.org/2000/svg">
<path d="M1.97241 19.8403L11.6412 19.838" stroke="#999999" stroke-width="1.5"/>
<path d="M11.362 20.3844C11.362 20.3844 11.362 15.3273 11.362 10.8604M11.362 5.25361C11.362 1.6156 11.362 1.6156 9.8215 1.6156C8.28096 1.6156 4.75395 1.6156 3.17287 1.6156C1.5918 1.6156 1.5918 1.6156 1.5918 5.25361M11.362 5.25361H1.5918M11.362 5.25361C11.362 6.47837 11.362 8.59336 11.362 10.8604M1.5918 5.25361C1.5918 6.47837 1.5918 8.59336 1.5918 10.8604M1.5918 20.3844C1.5918 20.3844 1.5918 15.3273 1.5918 10.8604M1.5918 10.8604H11.362M15.2513 2.94411L19.4314 7.17289" stroke="#999999" stroke-width="1.5"/>
<path d="M17.9722 5.78589L18.0052 15.5638" stroke="#999999" stroke-width="1.5"/>
<path d="M18.0054 15.5627C18.0054 15.5627 18.0054 17.8632 15.9485 17.8632C15.9485 17.8632 13.7258 17.8632 13.6926 15.5627V12.9916C13.6926 12.9916 13.6926 10.9618 11.3704 10.8942" stroke="#999999" stroke-width="1.5"/>
</svg>
