<svg width="27" height="17" viewBox="0 0 27 17" fill="none" xmlns="http://www.w3.org/2000/svg">
<path fill-rule="evenodd" clip-rule="evenodd" d="M13.5 17C5.71154 17 0 8.50298 0 8.50298C0 8.50298 5.71154 0 13.5 0C21.2885 0 27 8.49703 27 8.49703C27 8.49703 21.2885 17 13.5 17ZM13.5 14C16.5376 14 19 11.5376 19 8.5C19 5.46243 16.5376 3 13.5 3C10.4624 3 8 5.46243 8 8.5C8 11.5376 10.4624 14 13.5 14Z" fill="#999999"/>
<path fill-rule="evenodd" clip-rule="evenodd" d="M0 8.50298C0 8.50298 5.71154 17 13.5 17C21.2885 17 27 8.49703 27 8.49703C27 8.49703 21.2885 0 13.5 0C5.71154 0 0 8.50298 0 8.50298ZM25.7634 8.49724C25.6174 8.30545 25.4336 8.07131 25.2145 7.80573C24.5817 7.03861 23.6604 6.01679 22.5081 4.99752C20.1791 2.93731 17.0348 1 13.5 1C9.96548 1 6.82125 2.93856 4.49215 5.00027C3.33987 6.02026 2.41858 7.04281 1.78573 7.81048C1.56653 8.07638 1.38269 8.31079 1.23658 8.50276C1.38265 8.69455 1.56642 8.92869 1.78552 9.19428C2.41835 9.96139 3.33962 10.9832 4.49189 12.0025C6.82092 14.0627 9.96523 16 13.5 16C17.0345 16 20.1787 14.0614 22.5079 11.9997C23.6601 10.9797 24.5814 9.95719 25.2143 9.18952C25.4335 8.92362 25.6173 8.68921 25.7634 8.49724ZM20 8.5C20 12.0899 17.0899 15 13.5 15C9.91015 15 7 12.0899 7 8.5C7 4.91015 9.91015 2 13.5 2C17.0899 2 20 4.91015 20 8.5ZM19 8.5C19 11.5376 16.5376 14 13.5 14C10.4624 14 8 11.5376 8 8.5C8 5.46243 10.4624 3 13.5 3C16.5376 3 19 5.46243 19 8.5Z" fill="#999999"/>
<path d="M17 8.5C17 10.433 15.433 12 13.5 12C11.567 12 10 10.433 10 8.5C10 6.567 11.567 5 13.5 5C15.433 5 17 6.567 17 8.5Z" fill="#999999"/>
<path fill-rule="evenodd" clip-rule="evenodd" d="M13.5 11C14.8807 11 16 9.88071 16 8.5C16 7.11929 14.8807 6 13.5 6C12.1193 6 11 7.11929 11 8.5C11 9.88071 12.1193 11 13.5 11ZM13.5 12C15.433 12 17 10.433 17 8.5C17 6.567 15.433 5 13.5 5C11.567 5 10 6.567 10 8.5C10 10.433 11.567 12 13.5 12Z" fill="#999999"/>
</svg>
