<svg width="25" height="25" viewBox="0 0 25 19" fill="none" xmlns="http://www.w3.org/2000/svg">
<path d="M20.7313 7.70251H11.3955V7.74808H20.7313L20.7315 7.74808L20.7322 7.74809C20.7329 7.7481 20.7339 7.74811 20.7352 7.74813C20.7379 7.74819 20.742 7.74829 20.7474 7.74851C20.7581 7.74894 20.774 7.7498 20.7943 7.75154C20.8348 7.75502 20.893 7.76199 20.9632 7.77595C21.1035 7.80389 21.291 7.85976 21.4803 7.97132C21.8575 8.19364 22.2447 8.63886 22.2756 9.53553V12.1618H22.3197V9.53474L22.3197 9.53433C22.2884 8.62145 21.8926 8.16184 21.5022 7.93174C21.3076 7.81707 21.1152 7.75982 20.9715 7.73121C20.8996 7.71689 20.8398 7.70972 20.7979 7.70613C20.7769 7.70433 20.7604 7.70343 20.7491 7.70297C20.7434 7.70275 20.7391 7.70263 20.7361 7.70257C20.7346 7.70254 20.7334 7.70253 20.7326 7.70252L20.7317 7.70252L20.7315 7.70251L20.7313 7.70251ZM20.7313 7.70251V7.7253C20.7313 7.70251 20.7313 7.70251 20.7313 7.70251Z" stroke="#999999" stroke-width="1.5"/>
<path fill-rule="evenodd" clip-rule="evenodd" d="M14.0093 1.0264H3.33716V0.980835H14.0093V1.0264Z" stroke="#999999" stroke-width="1.5"/>
<path fill-rule="evenodd" clip-rule="evenodd" d="M14.0669 7.71897L12.2139 1.1288L12.2576 1.11621L14.1894 7.71897H14.0669Z" stroke="#999999" stroke-width="1.5"/>
<path fill-rule="evenodd" clip-rule="evenodd" d="M5.1936 6.34814V1.03528H5.25949V6.34814H5.1936Z" stroke="#999999" stroke-width="1.5"/>
<path fill-rule="evenodd" clip-rule="evenodd" d="M16.7301 15.182H13.9785V15.1365H16.7301V15.182Z" stroke="#999999" stroke-width="1.5"/>
<path d="M17.6616 3.82983V7.72514H17.6888L17.6888 3.82979L17.6888 3.82959L17.6888 3.82873C17.6888 3.82794 17.6888 3.82674 17.6888 3.82514C17.6888 3.82193 17.6889 3.81712 17.689 3.81081C17.6893 3.79818 17.6899 3.77954 17.691 3.75575C17.6933 3.70815 17.6978 3.63996 17.7069 3.55791C17.7251 3.39373 17.7614 3.17457 17.8339 2.95411C17.9064 2.73374 18.015 2.51233 18.1777 2.34291C18.3377 2.17627 18.5508 2.05919 18.8349 2.04383V3.36548C18.8342 3.36554 18.8336 3.3656 18.8329 3.36566C18.8231 3.36655 18.8093 3.36833 18.7925 3.37188C18.7592 3.37897 18.7142 3.39317 18.6682 3.42172C18.576 3.47892 18.478 3.59509 18.463 3.82768L18.4629 3.82875V7.72514H18.49V3.83091C18.5039 3.62043 18.5917 3.51498 18.6782 3.46133C18.7216 3.43441 18.7643 3.42087 18.7962 3.41409C18.8121 3.4107 18.8253 3.40902 18.8344 3.40818C18.839 3.40776 18.8426 3.40755 18.845 3.40745C18.8462 3.4074 18.8471 3.40737 18.8477 3.40736L18.8483 3.40735L18.8485 3.40735H18.862V2L18.8481 2.00059C18.5525 2.01301 18.33 2.13317 18.1627 2.30742C17.9954 2.48162 17.884 2.70911 17.8098 2.93457C17.7357 3.15994 17.6986 3.38352 17.6802 3.55062C17.6709 3.63422 17.6663 3.7038 17.664 3.75258C17.6628 3.77697 17.6622 3.79617 17.6619 3.80932C17.6618 3.8159 17.6617 3.82097 17.6617 3.82442C17.6616 3.82615 17.6616 3.82747 17.6616 3.82837L17.6616 3.82942L17.6616 3.8297L17.6616 3.82983ZM17.6616 3.82983H17.6752C17.6616 3.82983 17.6616 3.82985 17.6616 3.82983Z" stroke="#999999" stroke-width="0.5"/>
<path d="M12.8939 10.0709L12.8947 10.0722L12.8956 10.0737C12.8963 10.0747 12.897 10.0759 12.8979 10.0774C12.9007 10.082 12.9049 10.089 12.9104 10.0982C12.9213 10.1167 12.9374 10.1444 12.9576 10.1809C12.998 10.2538 13.0551 10.3619 13.1219 10.5023C13.2554 10.783 13.4274 11.1928 13.5809 11.7084C13.8833 12.7242 14.1138 14.1504 13.8376 15.8102C13.831 15.8498 13.8614 15.8862 13.9016 15.8862V15.8862C13.9329 15.8862 13.9598 15.8635 13.965 15.8325C14.2467 14.1549 13.9298 12.7208 13.6246 11.6954C13.4703 11.1772 13.2974 10.7652 13.163 10.4827C13.0958 10.3414 13.0383 10.2325 12.9974 10.1588C12.977 10.122 12.9608 10.0939 12.9496 10.075C12.9441 10.0656 12.9398 10.0585 12.9368 10.0537C12.9354 10.0513 12.9343 10.0495 12.9335 10.0482L12.933 10.0474C12.0388 8.19606 10.4991 7.27233 9.18434 6.81159C8.52681 6.58116 7.92516 6.46639 7.48787 6.40921C7.26921 6.38061 7.09157 6.36641 6.96852 6.35936C6.90699 6.35583 6.85911 6.35409 6.82655 6.35323C6.81028 6.35281 6.79783 6.3526 6.78943 6.3525C6.78523 6.35244 6.78204 6.35242 6.77989 6.35241L6.77702 6.3524C5.29693 6.29942 4.01768 6.74986 3.10885 7.21313C2.65432 7.44481 2.29221 7.67983 2.04365 7.85698C1.91936 7.94556 1.82345 8.01969 1.75855 8.07173C1.72609 8.09774 1.70139 8.11824 1.68478 8.13226C1.67647 8.13927 1.67018 8.14466 1.66595 8.14831C1.66384 8.15014 1.66224 8.15153 1.66116 8.15247V8.15247C1.66007 8.15342 1.65898 8.1543 1.65783 8.15517C1.64625 8.16391 1.57989 8.21511 1.59367 8.23071C1.60753 8.24639 1.67697 8.19726 1.68816 8.18918C1.68921 8.18842 1.69017 8.18764 1.69115 8.18678V8.18678C1.69216 8.1859 1.69369 8.18456 1.69574 8.1828C1.69984 8.17926 1.70599 8.17398 1.71416 8.16709C1.7305 8.15331 1.75491 8.13305 1.78705 8.10728C1.85134 8.05573 1.94657 7.98213 2.0701 7.89409C2.31717 7.71799 2.67736 7.48422 3.12954 7.25372C4.03404 6.79267 5.30608 6.34526 6.77622 6.39797L6.7768 6.39797M12.8939 10.0709C12.8939 10.0709 12.8937 10.0705 12.913 10.0584L12.8939 10.0709ZM12.8939 10.0709L12.893 10.0695L12.8925 10.0683C12.0053 8.23052 10.4771 7.3129 9.16927 6.85459C8.51537 6.62544 7.91692 6.51127 7.48197 6.45439C7.26451 6.42595 7.08799 6.41185 6.96592 6.40485C6.90488 6.40135 6.85746 6.39963 6.82535 6.39879C6.8093 6.39836 6.79707 6.39816 6.78888 6.39806C6.78479 6.39801 6.7817 6.39799 6.77965 6.39798L6.77736 6.39797L6.7768 6.39797M6.7768 6.39797C6.7768 6.39797 6.77664 6.39797 6.77661 6.37518L6.7768 6.39797Z" stroke="#999999" stroke-width="1.5"/>
<circle cx="20.4211" cy="15.309" r="2.94108" stroke="#999999" stroke-width="1.5"/>
<circle cx="6.58119" cy="13.733" r="4.51698" stroke="#999999" stroke-width="1.5"/>
<circle cx="20.4211" cy="15.309" r="0.5" stroke="#999999" stroke-width="0.979352"/>
<circle cx="6.58128" cy="13.733" r="0.75" stroke="#999999" stroke-width="1.49214"/>
</svg>
